<svg id="visual" viewBox="0 0 900 600" width="900" height="600" xmlns="http://www.w3.org/2000/svg" xmlns:xlink="http://www.w3.org/1999/xlink" version="1.1"><g transform="translate(480.6393388816416 289.38225821393667)"><path d="M61 -81.7C76.5 -72.7 84.9 -51.5 98.7 -27.6C112.5 -3.8 131.9 22.7 129.7 46C127.5 69.4 103.7 89.7 78.5 107.9C53.3 126 26.6 142 -5.6 149.7C-37.8 157.4 -75.6 156.8 -102.7 139.2C-129.8 121.7 -146.2 87.3 -163 49.7C-179.7 12.1 -196.9 -28.7 -189.3 -64.4C-181.6 -100 -149.3 -130.5 -113.6 -133C-78 -135.5 -39 -109.9 -8.1 -98.7C22.7 -87.5 45.5 -90.7 61 -81.7" fill="#2b9dd9"></path></g></svg>