<svg id="visual" viewBox="0 0 900 600" width="900" height="600" xmlns="http://www.w3.org/2000/svg" xmlns:xlink="http://www.w3.org/1999/xlink" version="1.1"><g transform="translate(459.81303056470034 285.72587335998566)"><path d="M47.2 -74.4C61.3 -54.7 73 -41.1 100.4 -18.1C127.8 4.8 170.9 37.2 177.3 70.1C183.8 103 153.6 136.4 118 154.7C82.3 172.9 41.1 176 10.6 161.4C-20 146.8 -40 114.7 -75.5 96.4C-111 78.1 -162 73.7 -184 49.5C-206.1 25.3 -199.1 -18.5 -181.1 -54.2C-163.1 -89.9 -134.2 -117.3 -102.2 -131.3C-70.1 -145.2 -35.1 -145.6 -9.3 -132.8C16.5 -120.1 33.1 -94.2 47.2 -74.4" fill="#2b9dd9"></path></g></svg>