<svg id="visual" viewBox="0 0 960 540" width="960" height="540" xmlns="http://www.w3.org/2000/svg" xmlns:xlink="http://www.w3.org/1999/xlink" version="1.1"><path d="M50 0L52.7 12.8C55.3 25.7 60.7 51.3 64.8 77C69 102.7 72 128.3 73.7 154C75.3 179.7 75.7 205.3 75 231.2C74.3 257 72.7 283 72.2 308.8C71.7 334.7 72.3 360.3 69 386C65.7 411.7 58.3 437.3 59 463C59.7 488.7 68.3 514.3 72.7 527.2L77 540L0 540L0 527.2C0 514.3 0 488.7 0 463C0 437.3 0 411.7 0 386C0 360.3 0 334.7 0 308.8C0 283 0 257 0 231.2C0 205.3 0 179.7 0 154C0 128.3 0 102.7 0 77C0 51.3 0 25.7 0 12.8L0 0Z" fill="#c62368"></path><path d="M42 0L45.3 12.8C48.7 25.7 55.3 51.3 55.2 77C55 102.7 48 128.3 45 154C42 179.7 43 205.3 47 231.2C51 257 58 283 58.3 308.8C58.7 334.7 52.3 360.3 48.5 386C44.7 411.7 43.3 437.3 46.2 463C49 488.7 56 514.3 59.5 527.2L63 540L0 540L0 527.2C0 514.3 0 488.7 0 463C0 437.3 0 411.7 0 386C0 360.3 0 334.7 0 308.8C0 283 0 257 0 231.2C0 205.3 0 179.7 0 154C0 128.3 0 102.7 0 77C0 51.3 0 25.7 0 12.8L0 0Z" fill="#b64a9f"></path><path d="M49 0L47.7 12.8C46.3 25.7 43.7 51.3 43.3 77C43 102.7 45 128.3 46 154C47 179.7 47 205.3 47.5 231.2C48 257 49 283 46.5 308.8C44 334.7 38 360.3 35.3 386C32.7 411.7 33.3 437.3 35.7 463C38 488.7 42 514.3 44 527.2L46 540L0 540L0 527.2C0 514.3 0 488.7 0 463C0 437.3 0 411.7 0 386C0 360.3 0 334.7 0 308.8C0 283 0 257 0 231.2C0 205.3 0 179.7 0 154C0 128.3 0 102.7 0 77C0 51.3 0 25.7 0 12.8L0 0Z" fill="#916dc6"></path><path d="M21 0L23.5 12.8C26 25.7 31 51.3 33.2 77C35.3 102.7 34.7 128.3 32.5 154C30.3 179.7 26.7 205.3 25.2 231.2C23.7 257 24.3 283 26.3 308.8C28.3 334.7 31.7 360.3 31.5 386C31.3 411.7 27.7 437.3 26 463C24.3 488.7 24.7 514.3 24.8 527.2L25 540L0 540L0 527.2C0 514.3 0 488.7 0 463C0 437.3 0 411.7 0 386C0 360.3 0 334.7 0 308.8C0 283 0 257 0 231.2C0 205.3 0 179.7 0 154C0 128.3 0 102.7 0 77C0 51.3 0 25.7 0 12.8L0 0Z" fill="#5f88d9"></path><path d="M17 0L17.8 12.8C18.7 25.7 20.3 51.3 19.8 77C19.3 102.7 16.7 128.3 16.3 154C16 179.7 18 205.3 19.7 231.2C21.3 257 22.7 283 23.2 308.8C23.7 334.7 23.3 360.3 21.7 386C20 411.7 17 437.3 16.5 463C16 488.7 18 514.3 19 527.2L20 540L0 540L0 527.2C0 514.3 0 488.7 0 463C0 437.3 0 411.7 0 386C0 360.3 0 334.7 0 308.8C0 283 0 257 0 231.2C0 205.3 0 179.7 0 154C0 128.3 0 102.7 0 77C0 51.3 0 25.7 0 12.8L0 0Z" fill="#2b9dd9"></path></svg>